<svg width="1380" height="402" viewBox="0 0 1380 402" fill="none" xmlns="http://www.w3.org/2000/svg">
<path d="M308.027 247.665C308.027 332.585 255.641 401.514 175.684 401.514C140.944 401.514 111.718 387.729 87.4548 362.363V396H0.880132V0.0725779H95.1748V126.902C118.335 104.844 144.804 93.8158 175.684 93.8158C255.641 93.8158 308.027 161.642 308.027 247.665ZM209.872 247.665C209.872 200.242 181.749 178.736 153.075 178.736C124.401 178.736 96.2777 199.691 96.2777 247.114C96.2777 293.985 123.849 316.594 153.075 316.594C181.749 316.594 209.872 293.985 209.872 247.665ZM428.661 259.245V396H334.367V99.3301H420.941V151.716C443.55 116.976 490.422 97.1244 537.845 97.1244V195.279C471.121 188.662 428.661 193.625 428.661 259.245ZM688.764 400.963C597.227 400.963 536.018 339.203 536.018 247.114C536.018 158.333 599.984 93.8158 688.213 93.8158C786.368 93.8158 851.988 173.773 834.894 271.377H633.621C638.584 308.874 656.23 327.623 686.559 327.623C713.027 327.623 730.673 316.594 738.945 295.088H833.239C815.042 362.914 762.656 400.963 688.764 400.963ZM686.007 163.296C657.884 163.296 641.341 179.288 634.724 212.374H733.982C732.879 182.596 714.13 163.296 686.007 163.296ZM958.315 239.945V396H864.02V99.3301H950.595V135.173C973.755 109.256 1001.33 93.8158 1038.82 93.8158C1097.28 93.8158 1138.63 132.967 1138.63 205.205V396H1044.34V236.636C1044.34 199.139 1031.1 178.736 1002.43 178.736C979.269 178.736 958.315 195.279 958.315 239.945ZM1377.73 303.36V385.523C1356.77 397.103 1336.92 401.514 1310.45 401.514C1243.73 401.514 1204.58 361.811 1204.58 293.985V181.493H1149.43V99.3301H1204.58V12.2041H1298.87V99.3301H1379.93V181.493H1298.87V271.928C1298.87 300.602 1311 313.837 1336.92 313.837C1352.36 313.837 1367.25 309.977 1377.73 303.36Z" fill="#1A1A1A"/>
</svg>
